# xmcd
#
# Track frame offsets: 
#        150
#        19357
#        35595
#        50862
#        67134
#        86722
#        103956
#        112534
#        127075
#        147936
#        169679
#        196142
#        216631
#        239088
#
# Disc length: 3393 seconds
#
# Revision: 1
# Processed by: cddbd v1.5.2PL0 Copyright (c) Steve Scherf et al.
# Submitted via: ExactAudioCopy v0.99pb4
#
DISCID=de0d3f0e
DTITLE=Times of Grace - The Hymn of a Broken Man
DYEAR=2011
DGENRE=Metalcore
TTITLE0=Strength in Numbers
TTITLE1=Fight for Life
TTITLE2=Willing
TTITLE3=Where the Spirit Leads Me
TTITLE4=Until the End of Days
TTITLE5=Live in Love
TTITLE6=In the Arms of Mercy
TTITLE7=Hymn of a Broken Man
TTITLE8=The Forgotten One
TTITLE9=Hope Remains
TTITLE10=The End of Eternity
TTITLE11=Worlds Apart
TTITLE12=Fall from Grace
TTITLE13=Willing (Acoustic Version)
EXTD=
EXTT0=
EXTT1=
EXTT2=
EXTT3=
EXTT4=
EXTT5=
EXTT6=
EXTT7=
EXTT8=
EXTT9=
EXTT10=
EXTT11=
EXTT12=
EXTT13=
PLAYORDER=
